STARTFONT 2.1
FONT -Linotype-Palatino-Bold-I-Normal--10-100-72-72-P-56-ISO8859-1
SIZE 10 72 72
FONTBOUNDINGBOX 12 13 -1 -3

STARTPROPERTIES 22
FONTNAME_REGISTRY "-"
FOUNDRY "Linotype"
FAMILY_NAME "Palatino"
WEIGHT_NAME "Bold"
SLANT "I"
SETWIDTH_NAME "Normal"
ADD_STYLE_NAME ""
SPACING "P"
CHARSET_REGISTRY "ISO8859"
CHARSET_ENCODING "1"
PIXEL_SIZE 10
POINT_SIZE 100
RESOLUTION_X 72
RESOLUTION_Y 72
AVERAGE_WIDTH 56
FULL_NAME "Palatino-BoldItalic"
WEIGHT 10
X_HEIGHT 5
QUAD_WIDTH 6
DEFAULT_CHAR 32
FONT_DESCENT 3
FONT_ASCENT 10
ENDPROPERTIES

CHARS 190

STARTCHAR space
ENCODING 32
SWIDTH 250 0
DWIDTH 3 0
BBX 1 1 0 0
BITMAP
00
ENDCHAR

STARTCHAR exclam
ENCODING 33
SWIDTH 333 0
DWIDTH 3 0
BBX 3 7 0 0
BITMAP
60
60
60
40
40
00
C0
ENDCHAR

STARTCHAR quotedbl
ENCODING 34
SWIDTH 500 0
DWIDTH 5 0
BBX 3 3 1 4
BITMAP
E0
E0
E0
ENDCHAR

STARTCHAR numbersign
ENCODING 35
SWIDTH 500 0
DWIDTH 6 0
BBX 6 7 0 0
BITMAP
38
38
FC
78
FC
70
70
ENDCHAR

STARTCHAR dollar
ENCODING 36
SWIDTH 500 0
DWIDTH 5 0
BBX 5 9 0 -1
BITMAP
10
38
68
60
70
30
B0
E0
40
ENDCHAR

STARTCHAR percent
ENCODING 37
SWIDTH 889 0
DWIDTH 9 0
BBX 7 7 1 0
BITMAP
48
E8
F0
54
2E
4E
44
ENDCHAR

STARTCHAR ampersand
ENCODING 38
SWIDTH 833 0
DWIDTH 8 0
BBX 8 7 0 0
BITMAP
38
63
76
7E
C6
EC
78
ENDCHAR

STARTCHAR quoteright
ENCODING 39
SWIDTH 278 0
DWIDTH 3 0
BBX 3 3 0 4
BITMAP
60
60
C0
ENDCHAR

STARTCHAR parenleft
ENCODING 40
SWIDTH 333 0
DWIDTH 3 0
BBX 4 10 0 -2
BITMAP
10
20
60
40
C0
C0
C0
C0
40
40
ENDCHAR

STARTCHAR parenright
ENCODING 41
SWIDTH 333 0
DWIDTH 3 0
BBX 4 10 -1 -2
BITMAP
20
20
30
30
30
30
20
60
40
80
ENDCHAR

STARTCHAR asterisk
ENCODING 42
SWIDTH 444 0
DWIDTH 4 0
BBX 4 4 0 3
BITMAP
60
F0
60
F0
ENDCHAR

STARTCHAR plus
ENCODING 43
SWIDTH 606 0
DWIDTH 6 0
BBX 5 5 0 1
BITMAP
20
20
F8
20
20
ENDCHAR

STARTCHAR comma
ENCODING 44
SWIDTH 250 0
DWIDTH 3 0
BBX 3 3 0 -1
BITMAP
60
60
C0
ENDCHAR

STARTCHAR minus
ENCODING 45
SWIDTH 606 0
DWIDTH 6 0
BBX 5 1 0 3
BITMAP
F8
ENDCHAR

STARTCHAR period
ENCODING 46
SWIDTH 250 0
DWIDTH 3 0
BBX 2 2 1 0
BITMAP
C0
C0
ENDCHAR

STARTCHAR slash
ENCODING 47
SWIDTH 315 0
DWIDTH 3 0
BBX 3 7 0 0
BITMAP
20
20
60
40
C0
80
80
ENDCHAR

STARTCHAR zero
ENCODING 48
SWIDTH 500 0
DWIDTH 5 0
BBX 5 7 0 0
BITMAP
30
78
58
D8
D0
F0
60
ENDCHAR

STARTCHAR one
ENCODING 49
SWIDTH 500 0
DWIDTH 5 0
BBX 4 7 0 0
BITMAP
30
70
30
30
60
60
F0
ENDCHAR

STARTCHAR two
ENCODING 50
SWIDTH 500 0
DWIDTH 5 0
BBX 5 7 0 0
BITMAP
38
78
18
10
60
F8
F8
ENDCHAR

STARTCHAR three
ENCODING 51
SWIDTH 500 0
DWIDTH 5 0
BBX 5 7 0 0
BITMAP
78
78
30
78
18
D8
F0
ENDCHAR

STARTCHAR four
ENCODING 52
SWIDTH 500 0
DWIDTH 5 0
BBX 5 7 0 0
BITMAP
18
38
78
F0
F8
30
78
ENDCHAR

STARTCHAR five
ENCODING 53
SWIDTH 500 0
DWIDTH 5 0
BBX 5 7 0 0
BITMAP
78
78
40
78
18
D8
F0
ENDCHAR

STARTCHAR six
ENCODING 54
SWIDTH 500 0
DWIDTH 5 0
BBX 5 7 0 0
BITMAP
38
60
70
D8
D8
D8
F0
ENDCHAR

STARTCHAR seven
ENCODING 55
SWIDTH 500 0
DWIDTH 5 0
BBX 5 7 1 0
BITMAP
F8
F8
30
20
60
C0
C0
ENDCHAR

STARTCHAR eight
ENCODING 56
SWIDTH 500 0
DWIDTH 5 0
BBX 5 7 0 0
BITMAP
38
78
78
70
D8
D8
F0
ENDCHAR

STARTCHAR nine
ENCODING 57
SWIDTH 500 0
DWIDTH 5 0
BBX 5 7 0 0
BITMAP
70
D8
D8
78
18
F0
E0
ENDCHAR

STARTCHAR colon
ENCODING 58
SWIDTH 250 0
DWIDTH 3 0
BBX 3 5 0 0
BITMAP
60
60
00
C0
C0
ENDCHAR

STARTCHAR semicolon
ENCODING 59
SWIDTH 250 0
DWIDTH 3 0
BBX 4 6 0 -1
BITMAP
30
30
00
60
60
C0
ENDCHAR

STARTCHAR less
ENCODING 60
SWIDTH 606 0
DWIDTH 6 0
BBX 5 5 0 0
BITMAP
18
70
C0
70
18
ENDCHAR

STARTCHAR equal
ENCODING 61
SWIDTH 606 0
DWIDTH 6 0
BBX 5 3 0 2
BITMAP
F8
00
F8
ENDCHAR

STARTCHAR greater
ENCODING 62
SWIDTH 606 0
DWIDTH 6 0
BBX 5 5 0 0
BITMAP
C0
70
18
70
C0
ENDCHAR

STARTCHAR question
ENCODING 63
SWIDTH 444 0
DWIDTH 4 0
BBX 4 7 0 0
BITMAP
E0
B0
30
60
40
00
C0
ENDCHAR

STARTCHAR at
ENCODING 64
SWIDTH 833 0
DWIDTH 8 0
BBX 7 7 0 0
BITMAP
3C
66
DA
BA
DC
60
3C
ENDCHAR

STARTCHAR A
ENCODING 65
SWIDTH 722 0
DWIDTH 8 0
BBX 8 7 0 0
BITMAP
0C
0C
1C
36
3E
66
E7
ENDCHAR

STARTCHAR B
ENCODING 66
SWIDTH 667 0
DWIDTH 7 0
BBX 7 7 0 0
BITMAP
7C
36
36
7C
66
6E
FC
ENDCHAR

STARTCHAR C
ENCODING 67
SWIDTH 685 0
DWIDTH 7 0
BBX 7 7 0 0
BITMAP
3E
66
C0
C0
C0
E6
7C
ENDCHAR

STARTCHAR D
ENCODING 68
SWIDTH 778 0
DWIDTH 8 0
BBX 8 7 0 0
BITMAP
7E
33
33
33
63
66
FC
ENDCHAR

STARTCHAR E
ENCODING 69
SWIDTH 611 0
DWIDTH 6 0
BBX 6 7 0 0
BITMAP
7C
34
30
78
60
68
F8
ENDCHAR

STARTCHAR F
ENCODING 70
SWIDTH 556 0
DWIDTH 6 0
BBX 6 7 0 0
BITMAP
7C
34
30
78
60
60
F0
ENDCHAR

STARTCHAR G
ENCODING 71
SWIDTH 778 0
DWIDTH 8 0
BBX 7 7 0 0
BITMAP
3E
66
C0
C0
CE
E6
7C
ENDCHAR

STARTCHAR H
ENCODING 72
SWIDTH 778 0
DWIDTH 8 0
BBX 9 7 0 0
BITMAP
7780
3300
3300
7E00
6600
6600
EF00
ENDCHAR

STARTCHAR I
ENCODING 73
SWIDTH 389 0
DWIDTH 4 0
BBX 5 7 0 0
BITMAP
78
30
30
30
60
60
F0
ENDCHAR

STARTCHAR J
ENCODING 74
SWIDTH 389 0
DWIDTH 4 0
BBX 5 9 -1 -2
BITMAP
78
30
30
30
60
60
60
60
C0
ENDCHAR

STARTCHAR K
ENCODING 75
SWIDTH 722 0
DWIDTH 7 0
BBX 7 7 0 0
BITMAP
76
34
38
30
78
6C
EE
ENDCHAR

STARTCHAR L
ENCODING 76
SWIDTH 611 0
DWIDTH 6 0
BBX 6 7 0 0
BITMAP
78
30
30
30
60
64
FC
ENDCHAR

STARTCHAR M
ENCODING 77
SWIDTH 944 0
DWIDTH 9 0
BBX 10 7 0 0
BITMAP
71C0
3180
3B80
5D80
5B00
5B00
EB80
ENDCHAR

STARTCHAR N
ENCODING 78
SWIDTH 778 0
DWIDTH 8 0
BBX 8 7 0 0
BITMAP
77
32
3A
3A
4C
4C
EC
ENDCHAR

STARTCHAR O
ENCODING 79
SWIDTH 833 0
DWIDTH 8 0
BBX 8 7 0 0
BITMAP
3E
63
C3
C3
C3
C6
7C
ENDCHAR

STARTCHAR P
ENCODING 80
SWIDTH 667 0
DWIDTH 7 0
BBX 7 7 0 0
BITMAP
7E
36
36
7C
60
60
F0
ENDCHAR

STARTCHAR Q
ENCODING 81
SWIDTH 833 0
DWIDTH 8 0
BBX 8 9 0 -2
BITMAP
3E
63
C3
C3
C3
E6
7C
32
5C
ENDCHAR

STARTCHAR R
ENCODING 82
SWIDTH 722 0
DWIDTH 7 0
BBX 7 7 0 0
BITMAP
7E
36
3C
78
6C
6C
F6
ENDCHAR

STARTCHAR S
ENCODING 83
SWIDTH 556 0
DWIDTH 6 0
BBX 6 7 0 0
BITMAP
3C
6C
60
30
18
D8
F0
ENDCHAR

STARTCHAR T
ENCODING 84
SWIDTH 611 0
DWIDTH 6 0
BBX 6 7 0 0
BITMAP
FC
B4
30
30
60
60
F0
ENDCHAR

STARTCHAR U
ENCODING 85
SWIDTH 778 0
DWIDTH 8 0
BBX 8 7 0 0
BITMAP
EF
66
66
CC
CC
DC
EE
ENDCHAR

STARTCHAR V
ENCODING 86
SWIDTH 667 0
DWIDTH 7 0
BBX 8 7 0 0
BITMAP
FF
66
6C
6C
38
30
30
ENDCHAR

STARTCHAR W
ENCODING 87
SWIDTH 1000 0
DWIDTH 10 0
BBX 11 7 0 0
BITMAP
F4E0
6640
6E40
6B80
3380
3180
2100
ENDCHAR

STARTCHAR X
ENCODING 88
SWIDTH 722 0
DWIDTH 7 0
BBX 7 7 0 0
BITMAP
76
34
38
18
3C
4C
DE
ENDCHAR

STARTCHAR Y
ENCODING 89
SWIDTH 611 0
DWIDTH 6 0
BBX 7 7 0 0
BITMAP
E6
6C
78
30
60
60
F0
ENDCHAR

STARTCHAR Z
ENCODING 90
SWIDTH 667 0
DWIDTH 7 0
BBX 7 7 0 0
BITMAP
7E
6C
18
30
60
CC
FC
ENDCHAR

STARTCHAR bracketleft
ENCODING 91
SWIDTH 333 0
DWIDTH 3 0
BBX 4 9 0 -2
BITMAP
70
60
60
60
60
C0
C0
C0
E0
ENDCHAR

STARTCHAR backslash
ENCODING 92
SWIDTH 606 0
DWIDTH 6 0
BBX 4 7 1 0
BITMAP
80
C0
40
60
20
30
10
ENDCHAR

STARTCHAR bracketright
ENCODING 93
SWIDTH 333 0
DWIDTH 3 0
BBX 4 9 -1 -2
BITMAP
70
30
30
30
30
60
60
60
E0
ENDCHAR

STARTCHAR asciicircum
ENCODING 94
SWIDTH 606 0
DWIDTH 6 0
BBX 6 5 0 2
BITMAP
30
30
78
78
CC
ENDCHAR

STARTCHAR underscore
ENCODING 95
SWIDTH 500 0
DWIDTH 5 0
BBX 5 1 0 -1
BITMAP
F8
ENDCHAR

STARTCHAR quoteleft
ENCODING 96
SWIDTH 278 0
DWIDTH 3 0
BBX 3 3 1 4
BITMAP
60
C0
C0
ENDCHAR

STARTCHAR a
ENCODING 97
SWIDTH 556 0
DWIDTH 6 0
BBX 6 5 0 0
BITMAP
38
78
D8
D8
FC
ENDCHAR

STARTCHAR b
ENCODING 98
SWIDTH 537 0
DWIDTH 5 0
BBX 5 7 0 0
BITMAP
E0
60
78
78
D8
D0
E0
ENDCHAR

STARTCHAR c
ENCODING 99
SWIDTH 444 0
DWIDTH 5 0
BBX 5 5 0 0
BITMAP
38
78
C0
D8
F0
ENDCHAR

STARTCHAR d
ENCODING 100
SWIDTH 556 0
DWIDTH 6 0
BBX 5 7 0 0
BITMAP
38
18
78
D8
B0
F0
D8
ENDCHAR

STARTCHAR e
ENCODING 101
SWIDTH 444 0
DWIDTH 5 0
BBX 5 5 0 0
BITMAP
78
68
F0
C8
F0
ENDCHAR

STARTCHAR f
ENCODING 102
SWIDTH 333 0
DWIDTH 3 0
BBX 5 10 -1 -3
BITMAP
18
30
78
30
30
60
60
60
60
C0
ENDCHAR

STARTCHAR g
ENCODING 103
SWIDTH 500 0
DWIDTH 5 0
BBX 6 8 0 -3
BITMAP
38
6C
68
78
30
F8
D8
F8
ENDCHAR

STARTCHAR h
ENCODING 104
SWIDTH 556 0
DWIDTH 6 0
BBX 6 7 0 0
BITMAP
E0
60
78
68
D8
D8
DC
ENDCHAR

STARTCHAR i
ENCODING 105
SWIDTH 333 0
DWIDTH 3 0
BBX 4 7 0 0
BITMAP
30
00
60
E0
60
C0
E0
ENDCHAR

STARTCHAR j
ENCODING 106
SWIDTH 333 0
DWIDTH 3 0
BBX 5 10 -1 -3
BITMAP
18
00
30
70
30
30
60
60
60
C0
ENDCHAR

STARTCHAR k
ENCODING 107
SWIDTH 556 0
DWIDTH 6 0
BBX 5 7 0 0
BITMAP
E0
60
78
70
E0
F0
F8
ENDCHAR

STARTCHAR l
ENCODING 108
SWIDTH 333 0
DWIDTH 3 0
BBX 3 7 0 0
BITMAP
E0
60
60
60
C0
C0
E0
ENDCHAR

STARTCHAR m
ENCODING 109
SWIDTH 833 0
DWIDTH 9 0
BBX 9 5 0 0
BITMAP
7F00
ED80
6D80
DB00
DB80
ENDCHAR

STARTCHAR n
ENCODING 110
SWIDTH 556 0
DWIDTH 6 0
BBX 6 5 0 0
BITMAP
7C
EC
6C
D8
DC
ENDCHAR

STARTCHAR o
ENCODING 111
SWIDTH 556 0
DWIDTH 5 0
BBX 5 5 0 0
BITMAP
78
58
D8
D0
F0
ENDCHAR

STARTCHAR p
ENCODING 112
SWIDTH 556 0
DWIDTH 5 0
BBX 6 8 -1 -3
BITMAP
7C
EC
6C
78
70
60
C0
C0
ENDCHAR

STARTCHAR q
ENCODING 113
SWIDTH 537 0
DWIDTH 5 0
BBX 5 8 0 -3
BITMAP
38
78
D8
B0
F0
30
60
60
ENDCHAR

STARTCHAR r
ENCODING 114
SWIDTH 389 0
DWIDTH 4 0
BBX 5 5 0 0
BITMAP
78
F0
60
C0
C0
ENDCHAR

STARTCHAR s
ENCODING 115
SWIDTH 444 0
DWIDTH 4 0
BBX 5 5 0 0
BITMAP
38
68
70
B0
E0
ENDCHAR

STARTCHAR t
ENCODING 116
SWIDTH 389 0
DWIDTH 4 0
BBX 4 6 0 0
BITMAP
20
F0
60
C0
D0
E0
ENDCHAR

STARTCHAR u
ENCODING 117
SWIDTH 556 0
DWIDTH 6 0
BBX 6 5 0 0
BITMAP
6C
EC
58
D8
FC
ENDCHAR

STARTCHAR v
ENCODING 118
SWIDTH 556 0
DWIDTH 6 0
BBX 6 5 0 0
BITMAP
FC
EC
6C
58
70
ENDCHAR

STARTCHAR w
ENCODING 119
SWIDTH 833 0
DWIDTH 9 0
BBX 9 5 0 0
BITMAP
FF80
ED80
6D80
5B00
7E00
ENDCHAR

STARTCHAR x
ENCODING 120
SWIDTH 500 0
DWIDTH 5 0
BBX 6 5 0 0
BITMAP
7C
38
30
70
F8
ENDCHAR

STARTCHAR y
ENCODING 121
SWIDTH 556 0
DWIDTH 6 0
BBX 6 8 0 -3
BITMAP
6C
EC
6C
58
78
30
F0
E0
ENDCHAR

STARTCHAR z
ENCODING 122
SWIDTH 500 0
DWIDTH 5 0
BBX 5 5 0 0
BITMAP
78
50
60
D8
F8
ENDCHAR

STARTCHAR braceleft
ENCODING 123
SWIDTH 333 0
DWIDTH 3 0
BBX 4 9 0 -2
BITMAP
30
60
60
60
C0
60
C0
C0
60
ENDCHAR

STARTCHAR bar
ENCODING 124
SWIDTH 606 0
DWIDTH 6 0
BBX 2 7 2 0
BITMAP
C0
C0
C0
C0
C0
C0
C0
ENDCHAR

STARTCHAR braceright
ENCODING 125
SWIDTH 333 0
DWIDTH 3 0
BBX 4 9 0 -2
BITMAP
60
30
30
60
30
60
60
60
C0
ENDCHAR

STARTCHAR asciitilde
ENCODING 126
SWIDTH 606 0
DWIDTH 6 0
BBX 5 2 0 2
BITMAP
68
B0
ENDCHAR

STARTCHAR exclamdown
ENCODING 161
SWIDTH 333 0
DWIDTH 3 0
BBX 3 7 0 -2
BITMAP
60
00
40
40
C0
C0
C0
ENDCHAR

STARTCHAR cent
ENCODING 162
SWIDTH 500 0
DWIDTH 5 0
BBX 5 7 0 -1
BITMAP
10
38
70
E0
E0
70
20
ENDCHAR

STARTCHAR sterling
ENCODING 163
SWIDTH 500 0
DWIDTH 5 0
BBX 5 7 0 0
BITMAP
38
68
60
F0
60
68
F8
ENDCHAR

STARTCHAR currency
ENCODING 164
SWIDTH 500 0
DWIDTH 6 0
BBX 5 5 0 1
BITMAP
A8
70
D8
70
A8
ENDCHAR

STARTCHAR yen
ENCODING 165
SWIDTH 500 0
DWIDTH 5 0
BBX 5 7 0 0
BITMAP
C8
50
70
F0
60
E0
40
ENDCHAR

STARTCHAR brokenbar
ENCODING 166
SWIDTH 606 0
DWIDTH 6 0
BBX 2 7 2 0
BITMAP
C0
C0
C0
00
C0
C0
C0
ENDCHAR

STARTCHAR section
ENCODING 167
SWIDTH 556 0
DWIDTH 6 0
BBX 5 9 0 -2
BITMAP
38
68
60
B0
D8
68
30
B0
E0
ENDCHAR

STARTCHAR dieresis
ENCODING 168
SWIDTH 333 0
DWIDTH 3 0
BBX 3 1 0 6
BITMAP
A0
ENDCHAR

STARTCHAR copyright
ENCODING 169
SWIDTH 747 0
DWIDTH 7 0
BBX 7 7 0 0
BITMAP
38
44
9A
B2
9A
44
38
ENDCHAR

STARTCHAR ordfeminine
ENCODING 170
SWIDTH 333 0
DWIDTH 3 0
BBX 3 5 0 2
BITMAP
60
A0
E0
00
E0
ENDCHAR

STARTCHAR guillemotleft
ENCODING 171
SWIDTH 500 0
DWIDTH 5 0
BBX 4 3 0 1
BITMAP
50
A0
50
ENDCHAR

STARTCHAR logicalnot
ENCODING 172
SWIDTH 606 0
DWIDTH 6 0
BBX 5 3 0 1
BITMAP
F8
08
08
ENDCHAR

STARTCHAR hyphen
ENCODING 173
SWIDTH 389 0
DWIDTH 4 0
BBX 3 1 0 2
BITMAP
E0
ENDCHAR

STARTCHAR registered
ENCODING 174
SWIDTH 747 0
DWIDTH 7 0
BBX 7 7 0 0
BITMAP
38
44
BA
B2
AA
44
38
ENDCHAR

STARTCHAR macron
ENCODING 175
SWIDTH 333 0
DWIDTH 3 0
BBX 3 1 0 6
BITMAP
E0
ENDCHAR

STARTCHAR degree
ENCODING 176
SWIDTH 400 0
DWIDTH 5 0
BBX 3 3 1 4
BITMAP
40
A0
40
ENDCHAR

STARTCHAR plusminus
ENCODING 177
SWIDTH 606 0
DWIDTH 6 0
BBX 5 6 0 0
BITMAP
20
20
F8
20
20
F8
ENDCHAR

STARTCHAR twosuperior
ENCODING 178
SWIDTH 300 0
DWIDTH 3 0
BBX 3 5 0 2
BITMAP
60
E0
20
C0
E0
ENDCHAR

STARTCHAR threesuperior
ENCODING 179
SWIDTH 300 0
DWIDTH 3 0
BBX 3 5 0 2
BITMAP
60
A0
60
A0
E0
ENDCHAR

STARTCHAR acute
ENCODING 180
SWIDTH 333 0
DWIDTH 3 0
BBX 2 2 0 5
BITMAP
40
80
ENDCHAR

STARTCHAR mu
ENCODING 181
SWIDTH 556 0
DWIDTH 6 0
BBX 6 7 0 -2
BITMAP
6C
EC
58
D8
FC
80
80
ENDCHAR

STARTCHAR paragraph
ENCODING 182
SWIDTH 556 0
DWIDTH 6 0
BBX 5 9 0 -2
BITMAP
78
E8
E8
E8
50
50
50
50
F8
ENDCHAR

STARTCHAR periodcentered
ENCODING 183
SWIDTH 250 0
DWIDTH 5 0
BBX 1 2 2 3
BITMAP
80
80
ENDCHAR

STARTCHAR cedilla
ENCODING 184
SWIDTH 333 0
DWIDTH 3 0
BBX 2 2 0 -2
BITMAP
40
C0
ENDCHAR

STARTCHAR onesuperior
ENCODING 185
SWIDTH 300 0
DWIDTH 3 0
BBX 3 5 0 2
BITMAP
C0
40
40
40
E0
ENDCHAR

STARTCHAR ordmasculine
ENCODING 186
SWIDTH 333 0
DWIDTH 3 0
BBX 3 5 0 2
BITMAP
40
A0
40
00
E0
ENDCHAR

STARTCHAR guillemotright
ENCODING 187
SWIDTH 500 0
DWIDTH 5 0
BBX 4 3 0 1
BITMAP
A0
50
A0
ENDCHAR

STARTCHAR onequarter
ENCODING 188
SWIDTH 750 0
DWIDTH 8 0
BBX 8 7 0 0
BITMAP
C4
48
4A
56
EE
2F
42
ENDCHAR

STARTCHAR onehalf
ENCODING 189
SWIDTH 750 0
DWIDTH 8 0
BBX 8 7 0 0
BITMAP
C4
48
4A
57
E1
26
47
ENDCHAR

STARTCHAR threequarters
ENCODING 190
SWIDTH 750 0
DWIDTH 8 0
BBX 8 7 0 0
BITMAP
E4
A8
6A
B6
EE
2F
42
ENDCHAR

STARTCHAR questiondown
ENCODING 191
SWIDTH 444 0
DWIDTH 4 0
BBX 4 7 0 -2
BITMAP
30
00
20
60
C0
D0
70
ENDCHAR

STARTCHAR Agrave
ENCODING 192
SWIDTH 722 0
DWIDTH 8 0
BBX 8 9 0 0
BITMAP
18
04
0C
0C
1C
36
3E
66
E7
ENDCHAR

STARTCHAR Aacute
ENCODING 193
SWIDTH 722 0
DWIDTH 8 0
BBX 8 9 0 0
BITMAP
06
08
0C
0C
1C
36
3E
66
E7
ENDCHAR

STARTCHAR Acircumflex
ENCODING 194
SWIDTH 722 0
DWIDTH 8 0
BBX 8 9 0 0
BITMAP
0C
12
0C
0C
1C
36
3E
66
E7
ENDCHAR

STARTCHAR Atilde
ENCODING 195
SWIDTH 722 0
DWIDTH 8 0
BBX 8 9 0 0
BITMAP
1A
16
0C
0C
1C
36
3E
66
E7
ENDCHAR

STARTCHAR Adieresis
ENCODING 196
SWIDTH 722 0
DWIDTH 8 0
BBX 8 9 0 0
BITMAP
0A
00
0C
0C
1C
36
3E
66
E7
ENDCHAR

STARTCHAR Aring
ENCODING 197
SWIDTH 722 0
DWIDTH 8 0
BBX 8 10 0 0
BITMAP
04
0A
04
0C
1C
16
36
3E
66
E7
ENDCHAR

STARTCHAR AE
ENCODING 198
SWIDTH 944 0
DWIDTH 10 0
BBX 10 7 0 0
BITMAP
0FC0
0740
0B00
1780
3E00
4680
CF80
ENDCHAR

STARTCHAR Ccedilla
ENCODING 199
SWIDTH 685 0
DWIDTH 7 0
BBX 7 9 0 -2
BITMAP
3E
66
C0
C0
C0
E6
7C
10
30
ENDCHAR

STARTCHAR Egrave
ENCODING 200
SWIDTH 611 0
DWIDTH 6 0
BBX 6 9 0 0
BITMAP
30
08
7C
34
30
78
60
68
F8
ENDCHAR

STARTCHAR Eacute
ENCODING 201
SWIDTH 611 0
DWIDTH 6 0
BBX 6 9 0 0
BITMAP
0C
10
7C
34
30
78
60
68
F8
ENDCHAR

STARTCHAR Ecircumflex
ENCODING 202
SWIDTH 611 0
DWIDTH 6 0
BBX 6 9 0 0
BITMAP
18
24
7C
34
30
78
60
68
F8
ENDCHAR

STARTCHAR Edieresis
ENCODING 203
SWIDTH 611 0
DWIDTH 6 0
BBX 6 9 0 0
BITMAP
14
00
7C
34
30
78
60
68
F8
ENDCHAR

STARTCHAR Igrave
ENCODING 204
SWIDTH 389 0
DWIDTH 4 0
BBX 5 9 0 0
BITMAP
60
10
78
30
30
30
60
60
F0
ENDCHAR

STARTCHAR Iacute
ENCODING 205
SWIDTH 389 0
DWIDTH 4 0
BBX 5 9 0 0
BITMAP
18
20
78
30
30
30
60
60
F0
ENDCHAR

STARTCHAR Icircumflex
ENCODING 206
SWIDTH 389 0
DWIDTH 4 0
BBX 5 9 0 0
BITMAP
30
48
78
30
30
30
60
60
F0
ENDCHAR

STARTCHAR Idieresis
ENCODING 207
SWIDTH 389 0
DWIDTH 4 0
BBX 5 9 0 0
BITMAP
28
00
78
30
30
30
60
60
F0
ENDCHAR

STARTCHAR Eth
ENCODING 208
SWIDTH 778 0
DWIDTH 8 0
BBX 8 7 0 0
BITMAP
7E
33
33
FB
63
66
FC
ENDCHAR

STARTCHAR Ntilde
ENCODING 209
SWIDTH 778 0
DWIDTH 8 0
BBX 8 9 0 0
BITMAP
1A
16
77
32
3A
3A
4C
4C
EC
ENDCHAR

STARTCHAR Ograve
ENCODING 210
SWIDTH 833 0
DWIDTH 8 0
BBX 8 9 0 0
BITMAP
18
04
3E
63
C3
C3
C3
C6
7C
ENDCHAR

STARTCHAR Oacute
ENCODING 211
SWIDTH 833 0
DWIDTH 8 0
BBX 8 9 0 0
BITMAP
0C
10
3E
63
C3
C3
C3
C6
7C
ENDCHAR

STARTCHAR Ocircumflex
ENCODING 212
SWIDTH 833 0
DWIDTH 8 0
BBX 8 9 0 0
BITMAP
0C
12
3E
63
C3
C3
C3
C6
7C
ENDCHAR

STARTCHAR Otilde
ENCODING 213
SWIDTH 833 0
DWIDTH 8 0
BBX 8 9 0 0
BITMAP
1A
16
3E
63
C3
C3
C3
C6
7C
ENDCHAR

STARTCHAR Odieresis
ENCODING 214
SWIDTH 833 0
DWIDTH 8 0
BBX 8 9 0 0
BITMAP
14
00
3E
63
C3
C3
C3
C6
7C
ENDCHAR

STARTCHAR multiply
ENCODING 215
SWIDTH 606 0
DWIDTH 6 0
BBX 5 5 0 1
BITMAP
88
50
20
50
88
ENDCHAR

STARTCHAR Oslash
ENCODING 216
SWIDTH 833 0
DWIDTH 8 0
BBX 8 7 0 0
BITMAP
3F
63
C7
DB
E3
C6
FC
ENDCHAR

STARTCHAR Ugrave
ENCODING 217
SWIDTH 778 0
DWIDTH 8 0
BBX 8 9 0 0
BITMAP
30
08
EF
66
66
CC
CC
DC
EE
ENDCHAR

STARTCHAR Uacute
ENCODING 218
SWIDTH 778 0
DWIDTH 8 0
BBX 8 9 0 0
BITMAP
0C
10
EF
66
66
CC
CC
DC
EE
ENDCHAR

STARTCHAR Ucircumflex
ENCODING 219
SWIDTH 778 0
DWIDTH 8 0
BBX 8 9 0 0
BITMAP
18
24
EF
66
66
CC
CC
DC
EE
ENDCHAR

STARTCHAR Udieresis
ENCODING 220
SWIDTH 778 0
DWIDTH 8 0
BBX 8 9 0 0
BITMAP
14
00
EF
66
66
CC
CC
DC
EE
ENDCHAR

STARTCHAR Yacute
ENCODING 221
SWIDTH 611 0
DWIDTH 6 0
BBX 7 9 0 0
BITMAP
18
20
E6
6C
78
30
60
60
F0
ENDCHAR

STARTCHAR Thorn
ENCODING 222
SWIDTH 667 0
DWIDTH 7 0
BBX 7 7 0 0
BITMAP
70
3E
36
66
7C
60
F0
ENDCHAR

STARTCHAR germandbls
ENCODING 223
SWIDTH 556 0
DWIDTH 6 0
BBX 7 10 -1 -3
BITMAP
1C
36
72
34
36
36
7C
60
60
C0
ENDCHAR

STARTCHAR agrave
ENCODING 224
SWIDTH 556 0
DWIDTH 6 0
BBX 6 7 0 0
BITMAP
60
10
38
78
D8
D8
FC
ENDCHAR

STARTCHAR aacute
ENCODING 225
SWIDTH 556 0
DWIDTH 6 0
BBX 6 7 0 0
BITMAP
18
20
38
78
D8
D8
FC
ENDCHAR

STARTCHAR acircumflex
ENCODING 226
SWIDTH 556 0
DWIDTH 6 0
BBX 6 7 0 0
BITMAP
30
48
38
78
D8
D8
FC
ENDCHAR

STARTCHAR atilde
ENCODING 227
SWIDTH 556 0
DWIDTH 6 0
BBX 6 7 0 0
BITMAP
68
58
38
78
D8
D8
FC
ENDCHAR

STARTCHAR adieresis
ENCODING 228
SWIDTH 556 0
DWIDTH 6 0
BBX 6 7 0 0
BITMAP
28
00
38
78
D8
D8
FC
ENDCHAR

STARTCHAR aring
ENCODING 229
SWIDTH 556 0
DWIDTH 6 0
BBX 6 8 0 0
BITMAP
10
28
10
38
78
D8
D8
FC
ENDCHAR

STARTCHAR ae
ENCODING 230
SWIDTH 738 0
DWIDTH 8 0
BBX 8 5 0 0
BITMAP
7F
1D
7E
D9
FE
ENDCHAR

STARTCHAR ccedilla
ENCODING 231
SWIDTH 444 0
DWIDTH 5 0
BBX 5 7 0 -2
BITMAP
38
78
C0
D8
F0
20
60
ENDCHAR

STARTCHAR egrave
ENCODING 232
SWIDTH 444 0
DWIDTH 5 0
BBX 5 7 0 0
BITMAP
60
10
78
68
F0
C8
F0
ENDCHAR

STARTCHAR eacute
ENCODING 233
SWIDTH 444 0
DWIDTH 5 0
BBX 5 7 0 0
BITMAP
18
20
78
68
F0
C8
F0
ENDCHAR

STARTCHAR ecircumflex
ENCODING 234
SWIDTH 444 0
DWIDTH 5 0
BBX 5 7 0 0
BITMAP
30
48
78
68
F0
C8
F0
ENDCHAR

STARTCHAR edieresis
ENCODING 235
SWIDTH 444 0
DWIDTH 5 0
BBX 5 7 0 0
BITMAP
28
00
78
68
F0
C8
F0
ENDCHAR

STARTCHAR igrave
ENCODING 236
SWIDTH 333 0
DWIDTH 3 0
BBX 3 7 0 0
BITMAP
C0
20
60
E0
60
C0
E0
ENDCHAR

STARTCHAR iacute
ENCODING 237
SWIDTH 333 0
DWIDTH 3 0
BBX 3 7 0 0
BITMAP
60
80
60
E0
60
C0
E0
ENDCHAR

STARTCHAR icircumflex
ENCODING 238
SWIDTH 333 0
DWIDTH 3 0
BBX 4 7 0 0
BITMAP
60
90
60
E0
60
C0
E0
ENDCHAR

STARTCHAR idieresis
ENCODING 239
SWIDTH 333 0
DWIDTH 3 0
BBX 4 7 0 0
BITMAP
50
00
60
E0
60
C0
E0
ENDCHAR

STARTCHAR eth
ENCODING 240
SWIDTH 556 0
DWIDTH 6 0
BBX 5 7 0 0
BITMAP
F8
50
78
58
D8
D0
F0
ENDCHAR

STARTCHAR ntilde
ENCODING 241
SWIDTH 556 0
DWIDTH 6 0
BBX 6 7 0 0
BITMAP
34
2C
7C
EC
6C
D8
DC
ENDCHAR

STARTCHAR ograve
ENCODING 242
SWIDTH 556 0
DWIDTH 5 0
BBX 5 7 0 0
BITMAP
60
10
78
58
D8
D0
F0
ENDCHAR

STARTCHAR oacute
ENCODING 243
SWIDTH 556 0
DWIDTH 5 0
BBX 5 7 0 0
BITMAP
18
20
78
58
D8
D0
F0
ENDCHAR

STARTCHAR ocircumflex
ENCODING 244
SWIDTH 556 0
DWIDTH 5 0
BBX 5 7 0 0
BITMAP
30
48
78
58
D8
D0
F0
ENDCHAR

STARTCHAR otilde
ENCODING 245
SWIDTH 556 0
DWIDTH 5 0
BBX 5 7 0 0
BITMAP
68
58
78
58
D8
D0
F0
ENDCHAR

STARTCHAR odieresis
ENCODING 246
SWIDTH 556 0
DWIDTH 5 0
BBX 5 7 0 0
BITMAP
28
00
78
58
D8
D0
F0
ENDCHAR

STARTCHAR divide
ENCODING 247
SWIDTH 606 0
DWIDTH 6 0
BBX 5 5 0 1
BITMAP
20
00
F8
00
20
ENDCHAR

STARTCHAR oslash
ENCODING 248
SWIDTH 556 0
DWIDTH 5 0
BBX 5 5 0 0
BITMAP
78
58
F8
D0
F0
ENDCHAR

STARTCHAR ugrave
ENCODING 249
SWIDTH 556 0
DWIDTH 6 0
BBX 6 7 0 0
BITMAP
30
08
6C
EC
58
D8
FC
ENDCHAR

STARTCHAR uacute
ENCODING 250
SWIDTH 556 0
DWIDTH 6 0
BBX 6 7 0 0
BITMAP
0C
10
6C
EC
58
D8
FC
ENDCHAR

STARTCHAR ucircumflex
ENCODING 251
SWIDTH 556 0
DWIDTH 6 0
BBX 6 7 0 0
BITMAP
18
24
6C
EC
58
D8
FC
ENDCHAR

STARTCHAR udieresis
ENCODING 252
SWIDTH 556 0
DWIDTH 6 0
BBX 6 7 0 0
BITMAP
28
00
6C
EC
58
D8
FC
ENDCHAR

STARTCHAR yacute
ENCODING 253
SWIDTH 556 0
DWIDTH 6 0
BBX 6 10 0 -3
BITMAP
0C
10
6C
EC
6C
58
78
30
E0
E0
ENDCHAR

STARTCHAR thorn
ENCODING 254
SWIDTH 556 0
DWIDTH 6 0
BBX 6 10 0 -3
BITMAP
70
30
3C
6C
6C
7C
70
C0
C0
C0
ENDCHAR

STARTCHAR ydieresis
ENCODING 255
SWIDTH 556 0
DWIDTH 6 0
BBX 6 10 0 -3
BITMAP
28
00
6C
EC
6C
58
78
30
E0
E0
ENDCHAR
ENDFONT
